<svg width="60" height="23" viewBox="0 0 60 23" fill="none" xmlns="http://www.w3.org/2000/svg">
<path d="M34.929 13.5256H34.4721C34.4721 9.15719 30.917 5.60215 26.5486 5.60215C22.1802 5.60215 18.6252 9.15719 18.6252 13.5256H18.1682C18.1682 8.9013 21.9335 5.1452 26.5486 5.1452C31.1638 5.1452 34.929 8.91044 34.929 13.5256Z" fill="#002199"/>
<path d="M33.7592 13.5256H33.3023C33.3023 9.79689 30.2682 6.76276 26.5395 6.76276C22.8108 6.76276 19.7767 9.79689 19.7767 13.5256H19.3197C19.3197 9.541 22.5549 6.30582 26.5395 6.30582C30.5241 6.30582 33.7592 9.55014 33.7592 13.5256Z" fill="#002199"/>
<path d="M32.5986 13.5256H32.1416C32.1416 10.4366 29.6284 7.93256 26.5486 7.93256C23.4596 7.93256 20.9556 10.4458 20.9556 13.5256H20.4986C20.4986 10.1899 23.2129 7.47562 26.5486 7.47562C29.8843 7.47562 32.5986 10.1899 32.5986 13.5256Z" fill="#002199"/>
<path d="M31.438 13.5256H30.981C30.981 11.0855 28.9887 9.09321 26.5486 9.09321C24.1085 9.09321 22.1162 11.0855 22.1162 13.5256H21.6593C21.6593 10.8296 23.8526 8.63626 26.5486 8.63626C29.2446 8.63626 31.438 10.8387 31.438 13.5256Z" fill="#002199"/>
<path d="M30.2681 13.5256H29.8112C29.8112 11.7252 28.349 10.263 26.5486 10.263C24.7482 10.263 23.286 11.7252 23.286 13.5256H22.829C22.829 11.4693 24.5015 9.80606 26.5486 9.80606C28.5957 9.80606 30.2681 11.4785 30.2681 13.5256Z" fill="#002199"/>
<path d="M29.1075 13.5256H28.6506C28.6506 12.3649 27.7092 11.4236 26.5486 11.4236C25.388 11.4236 24.4467 12.3649 24.4467 13.5256H23.9897C23.9897 12.1182 25.1412 10.9667 26.5486 10.9667C27.956 10.9667 29.1075 12.1182 29.1075 13.5256Z" fill="#002199"/>
<path d="M27.7092 13.7541C27.5813 13.7541 27.4808 13.6535 27.4808 13.5256C27.4808 13.0047 27.0604 12.5934 26.5486 12.5934C26.0368 12.5934 25.6164 13.0138 25.6164 13.5256C25.6164 13.6535 25.5159 13.7541 25.388 13.7541C25.26 13.7541 25.1595 13.6535 25.1595 13.5256C25.1595 12.7579 25.7809 12.1365 26.5486 12.1365C27.3163 12.1365 27.9377 12.7579 27.9377 13.5256C27.9377 13.6535 27.8372 13.7541 27.7092 13.7541Z" fill="#002199"/>
<path d="M17.2269 13.5256C17.2817 14.668 17.5285 15.7921 17.9946 16.8248C18.4515 17.8575 19.1095 18.7988 19.9137 19.5756C21.5222 21.1383 23.7338 22.0431 25.9637 22.0339C28.1936 22.0431 30.4144 21.1475 32.0137 19.5756C32.8179 18.7896 33.4759 17.8575 33.9329 16.8248C34.3989 15.7921 34.6457 14.668 34.7005 13.5256C34.7554 14.668 34.5543 15.8286 34.1431 16.9161C33.7227 17.9945 33.0829 18.9998 32.2696 19.8315C31.4562 20.6722 30.4692 21.3394 29.3908 21.7963C28.3124 22.2533 27.1335 22.4818 25.9637 22.4909C24.7939 22.4818 23.615 22.2533 22.5366 21.7963C21.4582 21.3394 20.4712 20.6722 19.6578 19.8315C18.8445 18.9907 18.2048 17.9945 17.7844 16.9161C17.3731 15.8378 17.1721 14.6771 17.2269 13.5256Z" fill="#002199"/>
<path d="M25.9637 21.3302C21.6593 21.3302 18.1591 17.83 18.1591 13.5256H18.616C18.616 17.5742 21.906 20.8733 25.9637 20.8733C30.0214 20.8733 33.3114 17.5833 33.3114 13.5256H33.7683C33.7592 17.83 30.2681 21.3302 25.9637 21.3302Z" fill="#002199"/>
<path d="M25.9637 20.1696C22.3081 20.1696 19.3288 17.1903 19.3288 13.5347H19.7858C19.7858 16.9435 22.5549 19.7126 25.9637 19.7126C29.3725 19.7126 32.1416 16.9435 32.1416 13.5347H32.5986C32.5986 17.1903 29.6193 20.1696 25.9637 20.1696Z" fill="#002199"/>
<path d="M25.9637 18.9998C22.9479 18.9998 20.4895 16.5415 20.4895 13.5256H20.9464C20.9464 16.2947 23.1946 18.5429 25.9637 18.5429C28.7328 18.5429 30.981 16.2947 30.981 13.5256H31.4379C31.4379 16.5506 28.9796 18.9998 25.9637 18.9998Z" fill="#002199"/>
<path d="M25.9637 17.8391C23.5876 17.8391 21.6593 15.9108 21.6593 13.5347H22.1162C22.1162 15.6549 23.8435 17.3822 25.9637 17.3822C28.084 17.3822 29.8112 15.6549 29.8112 13.5347H30.2682C30.2682 15.9017 28.3399 17.8391 25.9637 17.8391Z" fill="#002199"/>
<path d="M25.9637 16.6694C24.2273 16.6694 22.8199 15.262 22.8199 13.5256H23.2769C23.2769 15.0061 24.4832 16.2124 25.9637 16.2124C27.4442 16.2124 28.6505 15.0061 28.6505 13.5256H29.1075C29.1075 15.262 27.691 16.6694 25.9637 16.6694Z" fill="#002199"/>
<path d="M25.9637 15.5087C24.8762 15.5087 23.9897 14.6222 23.9897 13.5347H24.4467C24.4467 14.3755 25.1321 15.0518 25.9637 15.0518C26.7954 15.0518 27.4808 14.3663 27.4808 13.5347H27.9377C27.9377 14.6222 27.0512 15.5087 25.9637 15.5087Z" fill="#002199"/>
<path d="M25.9637 14.339C25.5159 14.339 25.1503 13.9734 25.1503 13.5256C25.1503 13.3977 25.2508 13.2971 25.3788 13.2971C25.5067 13.2971 25.6073 13.3977 25.6073 13.5256C25.6073 13.7175 25.7626 13.882 25.9637 13.882C26.1647 13.882 26.3201 13.7267 26.3201 13.5256C26.3201 13.3977 26.4206 13.2971 26.5486 13.2971C26.6765 13.2971 26.777 13.3977 26.777 13.5256C26.777 13.9734 26.4115 14.339 25.9637 14.339Z" fill="#002199"/>
<path d="M25.9637 22.5V22.043C30.652 22.043 34.472 18.223 34.472 13.5347H34.929C34.929 18.4697 30.9078 22.5 25.9637 22.5Z" fill="#002199"/>
<path d="M15.2437 13.7267C15.2437 12.3467 14.9604 11.0672 14.403 9.88832C13.8455 8.71854 13.0869 7.73153 12.1274 6.92731C11.1678 6.13222 10.0711 5.58389 8.83734 5.30058H8.82821L8.66371 5.27316C8.62715 5.26402 8.59973 5.25488 8.57232 5.24575C8.5449 5.24575 8.51748 5.24575 8.49007 5.23661C8.45351 5.22747 8.41695 5.22747 8.3804 5.22747C8.35298 5.21833 8.3347 5.21833 8.31643 5.21833C8.13365 5.19091 7.96001 5.17263 7.77723 5.15436C7.71326 5.15436 7.64928 5.15436 7.58531 5.14522H7.35684C7.32028 5.12694 7.26545 5.1178 7.21975 5.1178H7.1832C7.12836 5.1178 7.08267 5.12694 7.03698 5.12694C6.6897 5.15436 6.36983 5.22747 6.07739 5.35541L3.93888 6.22361V0H0L0.959588 2.64115V20.855L0 22.3355H7.37512C7.42995 22.3355 7.48478 22.3355 7.53962 22.3264H7.6767C7.70412 22.3264 7.73153 22.3264 7.76809 22.3173C7.82292 22.3173 7.87776 22.3173 7.94173 22.3081C8.11537 22.2899 8.27987 22.2716 8.43523 22.2442C8.51748 22.235 8.59973 22.2259 8.67284 22.2076C8.83734 22.171 8.99271 22.1345 9.15721 22.0888C10.3361 21.7689 11.378 21.2115 12.301 20.4072C13.2149 19.6121 13.9369 18.6343 14.4669 17.4828C14.9878 16.313 15.2437 15.0701 15.2437 13.7267ZM11.6156 17.7752C11.1586 18.9907 10.5372 19.9686 9.76038 20.6905C8.98357 21.4217 8.12451 21.7781 7.17406 21.7781H3.9206V6.83592L6.38811 5.83064C6.53433 5.7758 6.68056 5.73925 6.84506 5.71183C6.95473 5.69355 7.06439 5.68441 7.1832 5.68441H7.31114C7.44823 5.68441 7.57617 5.69355 7.69498 5.72097C7.71326 5.72097 7.73153 5.73011 7.74981 5.73011H7.76809C8.41695 5.84892 9.02926 6.14136 9.58674 6.61659C9.76952 6.77195 9.94315 6.93645 10.1077 7.12837C10.7748 7.86862 11.314 8.80993 11.707 9.96143C12.0999 11.1038 12.301 12.365 12.301 13.7267C12.301 15.2072 12.0725 16.5597 11.6156 17.7752Z" fill="#002199"/>
<path d="M52.0097 0H48.0891V6.23275L45.9505 5.36455C45.6581 5.23661 45.3382 5.1635 44.991 5.13608C44.9453 5.12694 44.8996 5.12694 44.8447 5.12694H44.8082C44.7533 5.12694 44.6985 5.13608 44.6437 5.13608H44.4152C44.3512 5.14522 44.2873 5.14522 44.2233 5.14522C44.0405 5.1635 43.8669 5.18177 43.6841 5.20919C43.6658 5.20919 43.6475 5.21833 43.6201 5.21833C43.5836 5.21833 43.547 5.22747 43.5105 5.22747C43.483 5.23661 43.4556 5.23661 43.4282 5.23661C43.4008 5.24575 43.3734 5.25488 43.3368 5.26402L43.1723 5.29144H43.1632C41.9294 5.57475 40.8327 6.12308 39.8732 6.91817C38.9136 7.71326 38.155 8.70026 37.5976 9.87918C37.0401 11.049 36.7568 12.3284 36.7568 13.7175C36.7568 15.0518 37.0218 16.3039 37.5427 17.4554C38.0728 18.6069 38.7856 19.5847 39.7087 20.3798C40.6226 21.1749 41.6735 21.7415 42.8525 22.0614C43.017 22.1071 43.1723 22.1436 43.3368 22.1802C43.4191 22.1985 43.5013 22.2076 43.5744 22.2167C43.7389 22.2442 43.9034 22.2624 44.0679 22.2807C44.1319 22.2899 44.1867 22.2898 44.2416 22.2898C44.2781 22.299 44.3055 22.299 44.333 22.299H44.47C44.5249 22.3081 44.5797 22.3081 44.6345 22.3081H52.0097L51.0501 20.8185V2.64115L52.0097 0ZM48.0891 21.7872H44.8356C43.8943 21.7872 43.0261 21.4217 42.2493 20.6997C41.4725 19.9686 40.851 18.9998 40.3941 17.7844C39.9371 16.5689 39.7087 15.2163 39.7087 13.7358C39.7087 12.3741 39.9097 11.1129 40.3027 9.97057C40.6957 8.82821 41.2349 7.87776 41.902 7.1375C42.0756 6.94559 42.2493 6.78109 42.4229 6.62572C42.9895 6.1505 43.5927 5.85805 44.2416 5.73925H44.2507C44.269 5.73011 44.2873 5.73011 44.3055 5.73011C44.4335 5.70269 44.5614 5.69355 44.6894 5.69355H44.8265C44.9453 5.69355 45.0549 5.70269 45.1646 5.72097C45.3291 5.74839 45.4753 5.78494 45.6215 5.83978L48.0891 6.84506V21.7872Z" fill="#002199"/>
<path d="M58.8547 3.25346V0H54.8976L58.8547 3.25346Z" fill="#002199"/>
<path d="M54.9341 22.3355H59.8235L58.8547 20.855V5.1178H54.9341L55.9029 6.60744V20.855L54.9341 22.3355Z" fill="#002199"/>
</svg>
