<svg width="150" height="32" viewBox="0 0 150 32" fill="none" xmlns="http://www.w3.org/2000/svg">
<path d="M2.27882 28.725C0.563131 26.8215 -0.208931 24.4422 0.0484227 21.5005C0.305777 18.5155 1.46387 16.1362 3.56559 14.2327C5.66732 12.3292 8.19796 11.3775 11.2004 11.3775C15.0178 11.3775 18.3206 13.3675 19.5644 16.5255L16.1759 18.3424C15.1894 16.3092 13.2164 14.9681 10.9431 14.9681C9.14159 14.9681 7.55458 15.5738 6.22492 16.8283C4.89526 18.0829 4.16609 19.6403 3.99452 21.5005C3.82295 23.3174 4.29476 24.8315 5.36707 26.0861C6.43938 27.3406 7.85483 27.9463 9.6563 27.9463C11.9296 27.9463 14.3745 26.5619 15.5326 24.6585L18.6208 26.5619C16.7764 29.5469 13.1306 31.5801 9.31316 31.5801C6.35359 31.5801 3.99452 30.6284 2.27882 28.725Z" fill="#002199"/>
<path d="M21.8377 6.57559C21.9664 5.10474 23.2532 3.97996 24.7544 3.97996C26.2127 3.97996 27.2422 5.148 27.1135 6.57559C26.9848 8.13297 25.7409 9.25774 24.2826 9.25774C22.7814 9.25774 21.709 8.13297 21.8377 6.57559ZM24.3255 31.1475H20.4223L22.0951 11.8101H25.9983L24.3255 31.1475Z" fill="#002199"/>
<path d="M26.7703 31.1475L28.4431 11.8101H32.3035L32.0461 14.5355C33.3758 12.5455 35.649 11.291 38.3942 11.291C40.4959 11.291 42.2116 11.9832 43.5412 13.3675C44.8709 14.7518 45.4714 16.7418 45.214 19.3374L44.2275 31.1475H40.2814L41.1822 20.5055C41.4824 16.9581 39.8096 14.9681 37.0645 14.9681C34.1049 14.9681 31.8745 17.2609 31.5743 20.5487L30.6735 31.1475H26.7703Z" fill="#002199"/>
<path d="M65.4592 23.0146H50.4898C50.79 26.0428 52.7202 28.076 56.4089 28.076C58.5964 28.076 61.2987 27.2541 63.1001 25.9995L64.4727 28.898C62.371 30.3689 59.1969 31.5801 55.9371 31.5801C48.7741 31.5801 46.1148 26.5187 46.5437 21.4139C46.8011 18.5155 47.8734 16.0929 49.8893 14.1894C51.8623 12.286 54.3501 11.3342 57.2239 11.3342C59.969 11.3342 62.1565 12.1995 63.7435 13.9299C65.3305 15.6603 66.0168 18.0396 65.7595 21.0678C65.7166 21.6302 65.6308 22.2791 65.4592 23.0146ZM50.79 19.77H61.942C61.8991 16.7418 59.7974 14.7518 56.9236 14.7518C53.9641 14.7518 51.605 16.7851 50.79 19.77Z" fill="#002199"/>
<path d="M84.0745 11.8101H87.849L86.1333 31.1475H82.3588L82.5733 28.5087C80.6431 30.5852 78.3698 31.6234 75.7534 31.6234C73.0083 31.6234 70.7779 30.6717 69.148 28.6817C67.518 26.6917 66.8318 24.2691 67.0891 21.3707C67.3465 18.4722 68.4188 16.0929 70.3918 14.1894C72.3649 12.286 74.7668 11.3775 77.512 11.3775C80.0855 11.3775 82.2301 12.4158 83.7742 14.5355L84.0745 11.8101ZM81.2436 26.0861C82.5304 24.8315 83.2166 23.2741 83.3882 21.4572C83.5598 19.6835 83.088 18.1261 82.0585 16.8716C80.9862 15.617 79.6137 14.9681 77.7693 14.9681C75.9249 14.9681 74.4237 15.617 73.1798 16.8716C71.936 18.1261 71.2497 19.6835 71.0781 21.5005C70.9065 23.3174 71.3355 24.8748 72.3649 26.1293C73.3943 27.3839 74.8526 27.9895 76.6541 27.9895C78.4556 27.9895 79.9568 27.3406 81.2436 26.0861Z" fill="#002199"/>
<path d="M88.1064 27.5569L90.8086 25.2641C91.838 27.1676 93.6395 28.2058 95.4409 28.2058C97.2853 28.2058 98.7008 27.1243 98.8294 25.7832C98.9152 24.8315 98.4434 24.0961 97.3711 23.577C97.0709 23.4039 96.2988 23.0578 95.1407 22.6252C94.0255 22.1061 93.2105 21.76 92.8245 21.5005C90.8944 20.4189 89.9936 18.8616 90.1652 16.7418C90.2939 15.1412 91.023 13.8001 92.2669 12.7618C93.5537 11.7236 95.2265 11.2045 97.1566 11.2045C99.9017 11.2045 101.918 12.1995 103.204 14.1894L100.717 16.612C99.6873 15.2277 98.3576 14.4923 96.6848 14.4923C95.0978 14.4923 94.0255 15.444 93.9397 16.612C93.8539 17.5638 94.3257 18.2559 95.3552 18.7318L97.2424 19.5537C98.4005 20.0729 99.2584 20.4622 99.8589 20.765C101.918 21.9331 102.904 23.5337 102.69 25.6535C102.561 27.3406 101.746 28.7682 100.331 29.9362C98.9152 31.1043 97.1137 31.6667 95.012 31.6667C92.1382 31.6234 89.4789 30.2391 88.1064 27.5569Z" fill="#002199"/>
<path d="M105.821 6.57559C105.95 5.10474 107.236 3.97996 108.738 3.97996C110.196 3.97996 111.225 5.148 111.097 6.57559C110.968 8.13297 109.724 9.25774 108.266 9.25774C106.765 9.25774 105.692 8.13297 105.821 6.57559ZM108.309 31.1475H104.405L106.078 11.8101H109.981L108.309 31.1475Z" fill="#002199"/>
<path d="M127.825 11.8101H131.599L129.883 31.1475H126.109L126.323 28.5087C124.393 30.5852 122.12 31.6234 119.504 31.6234C116.758 31.6234 114.528 30.6717 112.898 28.6817C111.268 26.6917 110.582 24.2691 110.839 21.3707C111.097 18.4722 112.169 16.0929 114.142 14.1894C116.115 12.286 118.517 11.3775 121.262 11.3775C123.836 11.3775 125.98 12.4158 127.524 14.5355L127.825 11.8101ZM124.994 26.0861C126.281 24.8315 126.967 23.2741 127.138 21.4572C127.31 19.6835 126.838 18.1261 125.809 16.8716C124.779 15.617 123.364 14.9681 121.519 14.9681C119.718 14.9681 118.174 15.617 116.93 16.8716C115.686 18.1261 115 19.6835 114.828 21.5005C114.657 23.3174 115.086 24.8748 116.115 26.1293C117.144 27.3839 118.603 27.9895 120.404 27.9895C122.206 27.9895 123.707 27.3406 124.994 26.0861Z" fill="#002199"/>
<path d="M140.607 0L142.279 7.4408L150 7.35428L143.352 11.8966L145.153 19.2942L139.32 14.6653L132.714 19.2942L135.803 11.8966L129.926 7.35428L137.647 7.4408L140.607 0Z" fill="#002199"/>
</svg>
