<svg width="150" height="36" viewBox="0 0 150 36" fill="none" xmlns="http://www.w3.org/2000/svg">
<path fill-rule="evenodd" clip-rule="evenodd" d="M4.16009 9.0694L8.4582 16.4038L17.7642 0H13.5844L8.4582 8.93139L6.24999 5.38249L4.16009 9.0694Z" fill="#002199"/>
<path fill-rule="evenodd" clip-rule="evenodd" d="M21.668 0L11.3959 18.0008H19.7161L21.668 14.4519L17.8825 14.3336L25.9661 0H21.668Z" fill="#002199"/>
<path fill-rule="evenodd" clip-rule="evenodd" d="M0 16.4038L5.2642 25.2366H15.556L17.7642 21.5497H7.4724L2.2082 12.5L0 16.4038Z" fill="#002199"/>
<path fill-rule="evenodd" clip-rule="evenodd" d="M23.7579 10.7847H34.168L39.4322 19.7161L37.224 23.5213L31.9598 14.4519H21.668L23.7579 10.7847Z" fill="#002199"/>
<path fill-rule="evenodd" clip-rule="evenodd" d="M28.0363 18.0008H19.7161L17.4684 21.5497H21.668L13.4661 35.8833H17.7642L28.0363 18.0008Z" fill="#002199"/>
<path fill-rule="evenodd" clip-rule="evenodd" d="M31.112 19.7161L35.2721 26.9322L33.1822 30.6191L31.112 26.9322L25.9661 35.8833H21.668L31.112 19.7161Z" fill="#002199"/>
<path d="M56.3486 27.7405C54.7713 27.7405 53.3123 27.4448 51.9519 26.873C50.5915 26.3013 49.4282 25.5126 48.4621 24.5268C47.4961 23.541 46.7271 22.3778 46.1751 21.0568C45.623 19.7358 45.347 18.3163 45.347 16.8178V16.739C45.347 15.2406 45.623 13.821 46.1751 12.4803C46.7271 11.1396 47.4961 9.97635 48.4621 8.97083C49.4282 7.96531 50.5915 7.17667 51.9519 6.6049C53.3123 6.03314 54.791 5.7374 56.4274 5.7374C58.4188 5.7374 60.0749 6.05285 61.3959 6.68377C62.7169 7.31468 63.8604 8.18219 64.8659 9.28629L61.1987 13.2295C60.5087 12.5197 59.8186 11.948 59.0891 11.5339C58.3596 11.1199 57.4724 10.903 56.388 10.903C55.6191 10.903 54.929 11.0607 54.3178 11.3565C53.7066 11.6522 53.1546 12.0663 52.7011 12.5986C52.2476 13.1309 51.8927 13.7421 51.6364 14.4322C51.3801 15.1223 51.2618 15.8715 51.2618 16.6601V16.739C51.2618 17.5473 51.3801 18.3163 51.6364 19.026C51.8927 19.7358 52.2476 20.347 52.7208 20.8794C53.194 21.4117 53.7658 21.8257 54.4164 22.1215C55.067 22.4172 55.8162 22.5749 56.6246 22.5749C57.6301 22.5749 58.4976 22.3778 59.2468 21.9637C59.9961 21.5497 60.7453 21.0174 61.4748 20.3273L64.9842 23.8762C63.959 25 62.7957 25.9267 61.4748 26.6562C60.1538 27.3857 58.4582 27.7405 56.3486 27.7405Z" fill="#002199"/>
<path d="M77.287 27.7406C75.6506 27.7406 74.1522 27.4646 72.7523 26.8928C71.3525 26.321 70.1498 25.5521 69.1443 24.5663C68.1388 23.5805 67.3304 22.4172 66.7587 21.0963C66.1869 19.7753 65.8911 18.336 65.8911 16.8179V16.739C65.8911 15.2209 66.1869 13.7816 66.7587 12.4606C67.3304 11.1396 68.1388 9.97639 69.164 8.97086C70.1893 7.96534 71.3919 7.1767 72.7918 6.60493C74.1916 6.03317 75.7098 5.73743 77.3659 5.73743C79.0023 5.73743 80.5008 6.01345 81.9006 6.58522C83.3005 7.15699 84.5031 7.92591 85.5087 8.91172C86.5142 9.89752 87.3225 11.0608 87.8943 12.3817C88.4661 13.7027 88.7618 15.142 88.7618 16.6601V16.739C88.7618 18.2571 88.4661 19.6964 87.8943 21.0174C87.3225 22.3384 86.5142 23.5016 85.4889 24.5071C84.4637 25.5127 83.261 26.3013 81.8612 26.8731C80.4613 27.4448 78.9432 27.7406 77.287 27.7406ZM77.3659 22.575C78.2334 22.575 79.0023 22.4172 79.6727 22.1215C80.343 21.8258 80.9148 21.4117 81.388 20.8794C81.8612 20.347 82.2161 19.7358 82.4724 19.0458C82.7287 18.3557 82.847 17.6065 82.847 16.8179V16.739C82.847 15.9504 82.709 15.2011 82.4527 14.5111C82.1964 13.821 81.802 13.1901 81.3091 12.6578C80.8162 12.1254 80.2247 11.6917 79.5347 11.3762C78.8446 11.0608 78.0954 10.903 77.287 10.903C76.4195 10.903 75.6506 11.0608 74.9803 11.3565C74.3099 11.6523 73.7382 12.0663 73.265 12.5986C72.7918 13.131 72.4369 13.7422 72.1806 14.4322C71.9243 15.1223 71.806 15.8715 71.806 16.6601V16.739C71.806 17.5276 71.944 18.2769 72.2003 18.9669C72.4566 19.657 72.8509 20.2879 73.3438 20.8202C73.8367 21.3526 74.4282 21.7863 75.0986 22.1018C75.7689 22.4172 76.5181 22.575 77.3659 22.575Z" fill="#002199"/>
<path d="M98.541 27.6617C97.0426 27.6617 95.5047 27.4054 93.9472 26.8928C92.3896 26.3801 90.8912 25.5718 89.4716 24.4677L92.0347 20.5245C93.1979 21.3722 94.3415 22.0032 95.485 22.4172C96.6285 22.8312 97.6932 23.0481 98.6987 23.0481C99.5662 23.0481 100.197 22.9101 100.611 22.6144C101.025 22.3186 101.222 21.944 101.222 21.4708V21.392C101.222 21.0765 101.104 20.8005 100.868 20.5639C100.631 20.3273 100.315 20.1301 99.9014 19.9527C99.4874 19.7752 99.0339 19.6175 98.5016 19.4598C97.9692 19.3021 97.4172 19.1246 96.8454 18.9472C96.1159 18.7303 95.3667 18.474 94.6175 18.1782C93.8683 17.8825 93.1979 17.4882 92.5867 16.9953C91.9755 16.5024 91.4826 15.9109 91.108 15.2011C90.7334 14.4913 90.5363 13.6238 90.5363 12.5986V12.5197C90.5363 11.4353 90.7334 10.489 91.1475 9.66089C91.5615 8.83282 92.1136 8.12304 92.8036 7.55127C93.4937 6.9795 94.3218 6.54575 95.2484 6.25001C96.1751 5.95427 97.1806 5.81625 98.265 5.81625C99.6057 5.81625 100.966 6.03313 102.346 6.46688C103.726 6.90064 104.988 7.49212 106.151 8.26105L103.864 12.4014C102.819 11.7902 101.794 11.317 100.789 10.9622C99.7831 10.6073 98.9156 10.4298 98.1467 10.4298C97.4172 10.4298 96.8651 10.5678 96.4905 10.8439C96.1159 11.1199 95.9385 11.4748 95.9385 11.8888V11.9677C95.9385 12.2634 96.0568 12.5197 96.2934 12.7366C96.53 12.9535 96.8454 13.1704 97.2397 13.3675C97.6341 13.5647 98.0875 13.7618 98.6002 13.9393C99.1128 14.1167 99.6648 14.3139 100.237 14.4913C100.966 14.7279 101.715 15.004 102.484 15.3391C103.253 15.6743 103.923 16.0686 104.535 16.5418C105.146 17.015 105.639 17.5868 106.033 18.2768C106.427 18.9669 106.625 19.795 106.625 20.761V20.8399C106.625 22.0229 106.427 23.0481 106.013 23.8959C105.599 24.7437 105.028 25.4535 104.298 26.0055C103.569 26.5576 102.701 26.9716 101.715 27.2476C100.729 27.5237 99.6648 27.6617 98.541 27.6617Z" fill="#002199"/>
<path d="M114.196 33.6948C113.091 33.6948 112.125 33.5568 111.278 33.3005C110.43 33.0442 109.641 32.6893 108.872 32.2358L110.883 27.8983C111.278 28.1349 111.711 28.3321 112.165 28.4898C112.618 28.6475 113.052 28.7264 113.446 28.7264C113.979 28.7264 114.393 28.6278 114.688 28.4306C114.984 28.2335 115.28 27.8786 115.536 27.3463L107.256 6.13174H113.604L118.415 20.5245L123.028 6.13174H129.259L121.136 27.78C120.741 28.8644 120.327 29.7713 119.874 30.5205C119.42 31.2698 118.927 31.881 118.395 32.3541C117.863 32.8273 117.252 33.1625 116.561 33.3794C115.871 33.5963 115.083 33.6948 114.196 33.6948Z" fill="#002199"/>
<path d="M130.639 6.13175H136.632V9.14831C136.968 8.69484 137.342 8.26108 137.756 7.86676C138.17 7.45272 138.624 7.09784 139.117 6.78238C139.61 6.46692 140.162 6.21061 140.773 6.03317C141.384 5.85572 142.054 5.75714 142.823 5.75714C145.11 5.75714 146.885 6.4472 148.127 7.84705C149.369 9.24689 150 11.1593 150 13.6041V27.2871H144.006V15.4969C144.006 14.0773 143.691 13.0127 143.06 12.2832C142.429 11.5537 141.542 11.1988 140.379 11.1988C139.215 11.1988 138.308 11.5537 137.638 12.2832C136.968 13.0127 136.632 14.0773 136.632 15.4969V27.2674H130.639V6.13175Z" fill="#002199"/>
</svg>
