<svg width="48" height="31" viewBox="0 0 48 31" fill="none" xmlns="http://www.w3.org/2000/svg">
<path fill-rule="evenodd" clip-rule="evenodd" d="M45.7477 20.2766C45.146 20.3199 44.3725 19.9334 43.8138 19.3333C43.3841 18.9044 42.6961 17.9174 42.7825 16.5019C42.911 14.5292 41.923 13.7567 41.3209 13.4569C39.5165 12.599 37.067 13.8858 32.0816 18.5179C32.3824 17.4885 32.7696 16.4594 33.027 15.6016C33.4567 14.2714 33.8865 13.0704 34.1447 12.0838C34.4451 11.0115 34.9183 9.25285 33.5001 8.43786C32.039 7.57999 30.8358 8.95302 30.3626 9.46731C28.1284 11.9556 25.8938 14.4859 23.7451 16.9308C22.3699 18.5179 20.9088 20.1479 19.5337 21.6925C20.8229 18.7753 21.9402 16.1163 22.8856 13.7996C24.2608 10.4543 25.2917 7.83735 25.9797 5.90713C26.9681 3.11903 27.6987 1.10302 26.0652 0.245149C24.3897 -0.655621 23.2294 1.10303 22.198 2.6472C15.9239 12.2125 12.5289 16.4594 10.767 18.3897C10.81 18.1319 10.8955 17.8745 10.9819 17.6176C11.2397 16.6306 11.8413 14.3572 10.1654 13.4135C8.27452 12.2983 6.21177 14.3147 2.81684 17.6176C2.00034 18.3897 1.26979 19.1188 0.581775 19.7623C-0.14835 20.4057 -0.191323 21.478 0.453284 22.2068C1.09789 22.936 2.17224 22.9793 2.90279 22.3359C3.63334 21.6925 4.44942 20.8771 5.26635 20.1054C5.82501 19.5478 6.55556 18.8186 7.28612 18.1752C6.85638 20.1479 6.64151 22.3783 8.44641 23.1504C10.2083 23.9225 12.0562 22.3359 14.4627 19.5045C15.8809 17.832 17.6428 15.5153 19.7051 12.599C18.1585 16.2874 16.0523 21.2635 13.0876 27.9545C12.357 29.6278 13.2165 30.4424 13.6033 30.7002C13.9471 30.9146 14.2479 31 14.5483 31C15.4511 31 16.2672 30.2712 16.7833 29.7565C17.3416 29.1989 18.1585 28.3835 19.1899 27.2687C21.1237 25.2093 23.7021 22.2501 26.4524 19.1613C27.3979 18.089 28.3433 17.0166 29.3317 15.9443C27.8276 20.5343 27.3545 22.7215 28.9879 23.7514C30.5775 24.7804 32.2539 23.1938 32.941 22.507C36.5083 19.1188 38.3987 17.66 39.3871 17.0595C39.4731 18.8186 40.1611 20.4481 41.4069 21.6925C42.6961 23.0218 44.3725 23.7514 45.9625 23.7081C46.9075 23.6652 47.6815 22.8935 47.6381 21.9069C47.5955 20.92 46.6927 20.2337 45.7477 20.2766" fill="#002199"/>
</svg>
