<svg width="153" height="44" viewBox="0 0 153 44" fill="none" xmlns="http://www.w3.org/2000/svg">
<path d="M22.5872 19.367C22.367 20.7431 21.8165 21.844 20.9908 22.6147C20.1651 23.3853 19.0092 23.7706 17.5229 23.7706H17.1927C15.1009 23.7706 13.6147 22.945 12.6789 21.2385C11.7431 19.5872 11.3028 17.5505 11.3028 15.2385C11.3028 12.9266 11.7431 10.945 12.6789 9.23853C13.6147 7.58715 15.1009 6.70642 17.1927 6.70642H17.5229C19.0092 6.70642 20.1651 7.14679 20.9908 7.91743C21.8165 8.68807 22.367 9.78899 22.5872 11.1101H29.7431C29.4679 7.69725 28.2018 5.16514 26 3.45871C23.7982 1.80734 20.8807 0.926603 17.3578 0.926603C15.4862 0.926603 13.7798 1.25688 12.1835 1.91743C10.5321 2.57798 9.15596 3.56881 7.94495 4.77981C6.73395 6.04587 5.79817 7.53211 5.13761 9.29358C4.47706 11.055 4.14679 13.0367 4.14679 15.2385C4.14679 17.4404 4.47706 19.422 5.13761 21.1835C5.79817 22.945 6.73395 24.4862 7.94495 25.6972C9.15596 26.9633 10.5321 27.8991 12.1835 28.5596C13.7798 29.2202 15.4862 29.5505 17.3578 29.5505C20.8807 29.5505 23.7982 28.7248 26 27.0183C28.2018 25.367 29.4679 22.7798 29.7431 19.367H22.5872ZM32.7706 37.5321H0.899082V43.422H32.7706V37.5321ZM46.8383 29.5505C48.875 29.5505 50.7466 29.2202 52.453 28.5046C54.1594 27.789 55.5906 26.7982 56.8016 25.5321C58.0126 24.2661 58.9484 22.7248 59.6089 20.9633C60.2695 19.2018 60.5998 17.3303 60.5998 15.2385C60.5998 13.2018 60.2695 11.2752 59.6089 9.51376C58.9484 7.75229 58.0126 6.26605 56.8016 5C55.5906 3.73394 54.1594 2.74312 52.453 2.02752C50.7466 1.31193 48.875 0.926603 46.8383 0.926603C44.7466 0.926603 42.875 1.31193 41.1686 2.02752C39.4622 2.74312 38.031 3.73394 36.82 5C35.6089 6.26605 34.7282 7.75229 34.0677 9.51376C33.4071 11.2752 33.0768 13.2018 33.0768 15.2385C33.0768 17.3303 33.4071 19.2018 34.0677 20.9633C34.7282 22.7248 35.6089 24.2661 36.82 25.5321C38.031 26.7982 39.4622 27.789 41.1686 28.5046C42.875 29.2202 44.7466 29.5505 46.8383 29.5505ZM47.0585 23.7706H46.6181C44.6915 23.7706 43.1502 23.055 41.9943 21.5138C40.8383 20.0275 40.2878 17.9358 40.2878 15.2385C40.2878 12.5963 40.8383 10.5046 41.9943 8.9633C43.1502 7.47706 44.6915 6.70642 46.6181 6.70642H47.0585C48.93 6.70642 50.4713 7.47706 51.6273 8.9633C52.7833 10.5046 53.3888 12.5963 53.3888 15.2385C53.3888 17.9358 52.7833 20.0275 51.6273 21.5138C50.4713 23.055 48.93 23.7706 47.0585 23.7706ZM63.7924 37.5321H29.8842V43.422H63.7924V37.5321ZM75.6643 29.5505C79.3524 29.5505 82.1597 28.7248 84.0863 27.0734C85.9579 25.422 86.9487 23.3853 86.9487 21.0734C86.9487 18.9266 86.2881 17.1651 85.0771 15.844C83.8111 14.5229 81.8845 13.5321 79.2423 12.8716L75.5542 11.9358C74.3982 11.7156 73.5175 11.3303 72.912 10.8899C72.3065 10.4495 72.0313 9.89908 72.0313 9.12844C72.0313 8.3578 72.3615 7.69725 73.0221 7.20183C73.6826 6.70642 74.5083 6.43119 75.4991 6.43119H75.9395C77.1505 6.43119 78.1413 6.81651 78.8019 7.53211C79.4624 8.24771 79.9028 9.23853 80.0679 10.5596H87.2239C87.2239 7.58715 86.2331 5.22018 84.2514 3.51376C82.2698 1.80734 79.5175 0.926603 75.9946 0.926603C72.5817 0.926603 69.8294 1.75229 67.8478 3.34862C65.8661 4.94495 64.8753 6.98165 64.8753 9.40367C64.8753 11.6055 65.5358 13.367 66.967 14.6881C68.3982 16.0092 70.545 17.055 73.4074 17.7156L76.9854 18.5963C77.9762 18.8716 78.6918 19.2018 79.1322 19.6422C79.5725 20.0826 79.7927 20.6881 79.7927 21.3486C79.7927 22.1743 79.4624 22.8349 78.8019 23.3303C78.1413 23.8257 77.2606 24.0459 76.1597 24.0459H75.7193C74.3432 24.0459 73.2423 23.7156 72.3615 22.945C71.4808 22.1743 71.0955 21.1835 71.0955 19.9174H63.7744C63.7744 22.945 64.8202 25.3119 66.912 27.0183C69.0037 28.7248 71.9212 29.5505 75.6643 29.5505ZM90.4716 37.5321H60.912V43.422H90.4716V37.5321ZM100.427 43.422C102.739 43.422 104.5 42.8165 105.711 41.6055C106.922 40.3945 107.583 38.578 107.583 36.2661V26.578L119.307 1.47706H111.381L104.225 18.211L96.7937 1.47706H88.757L100.757 26.8532V34.5046C100.757 35.7706 100.537 36.5963 100.152 36.9817C99.7662 37.367 98.9405 37.5321 97.7295 37.5321H86.9405V43.422H100.427ZM120.629 37.5321H114.353V43.422H120.629V37.5321ZM129.698 13.6972C129.698 11.8257 130.249 10.1743 131.405 8.79816C132.561 7.42202 133.992 6.70642 135.643 6.70642H136.084C137.405 6.70642 138.506 7.20183 139.276 8.13761C140.047 9.07339 140.432 10.4495 140.432 12.211V29H147.588V11.3853C147.588 8.41284 146.818 5.88073 145.276 3.89908C143.735 1.91743 141.313 0.926603 138.01 0.926603C136.194 0.926603 134.542 1.36697 133.111 2.19266C131.625 3.07339 130.469 4.17431 129.698 5.49541V1.47706H122.542V29H129.698V13.6972ZM152.102 37.5321H117.753V43.422H152.102V37.5321Z" fill="#002199"/>
</svg>
