<svg width="80" height="80" viewBox="0 0 80 80" fill="none" xmlns="http://www.w3.org/2000/svg">
<path d="M24.0386 41.4615V41.4712C24.0482 41.4808 24.0674 41.4808 24.077 41.4904C24.0674 41.4808 24.0482 41.4712 24.0386 41.4615Z" fill="#002199"/>
<path d="M56.2209 36.4423C55.2401 35.7404 53.9132 35.1538 52.317 34.6635C49.7112 33.8654 46.3555 33.3365 42.6247 33.1635C42.8747 32.5769 43.3651 31.7885 43.8651 31.1731C45.0093 29.7596 45.6632 28.7308 45.692 27.4712C45.7112 26.4231 45.1632 25.3558 43.8747 23.6827C43.7112 23.4615 43.4516 23.3365 43.1728 23.3558C42.7209 23.3846 42.3843 23.7692 42.4132 24.2115C42.4228 24.375 42.4901 24.5385 42.5862 24.6731C43.7978 26.25 44.067 27.0192 44.0574 27.4423C44.0382 28.1923 43.692 28.8077 42.5959 30.1538C41.942 30.9519 41.1055 31.9519 40.8747 33.125C40.5862 33.125 40.2978 33.1154 39.9997 33.1154C39.7978 33.1154 39.5959 33.125 39.3939 33.125C39.6535 32.5385 40.1247 31.7885 40.6151 31.1827C41.7593 29.7692 42.4132 28.7404 42.442 27.4808C42.4612 26.4327 41.9132 25.3654 40.6247 23.6923C40.4612 23.4712 40.2016 23.3462 39.9228 23.3654C39.4709 23.3942 39.1343 23.7788 39.1632 24.2212C39.1728 24.3846 39.2401 24.5481 39.3362 24.6827C40.5478 26.2596 40.817 27.0288 40.8074 27.4519C40.7882 28.2019 40.442 28.8173 39.3459 30.1635C38.6824 30.9712 37.8362 31.9808 37.6055 33.1731C37.0862 33.1923 36.5766 33.2308 36.067 33.2596C36.3074 32.6635 36.8266 31.8365 37.3459 31.1923C38.4901 29.7788 39.1439 28.75 39.1728 27.4904C39.192 26.4423 38.6439 25.375 37.3555 23.7019C37.192 23.4808 36.9324 23.3558 36.6535 23.375C36.2016 23.4038 35.8651 23.7885 35.8939 24.2308C35.9035 24.3942 35.9709 24.5577 36.067 24.6923C37.2785 26.2692 37.5478 27.0385 37.5382 27.4615C37.5189 28.2115 37.1728 28.8269 36.0766 30.1731C35.3747 31.0385 34.4612 32.1346 34.317 33.4327C31.8074 33.6923 29.5382 34.1154 27.6632 34.6923C26.0574 35.1827 24.7305 35.7596 23.7593 36.4712C22.7785 37.1731 22.1055 38.0673 22.1055 39.0962C22.1055 39.2212 22.1151 39.3558 22.1343 39.4808C22.1343 39.4904 22.1343 39.5 22.1343 39.5096C22.3747 48.9808 30.2882 56.6442 39.9997 56.6442C49.7112 56.6442 57.6247 48.9808 57.8362 39.4712C57.8362 39.4615 57.8362 39.4519 57.8362 39.4423C57.8555 39.3173 57.8651 39.1923 57.8651 39.0577C57.8651 38.0385 57.192 37.1442 56.2209 36.4423ZM24.8362 37.6538C25.5766 37.1154 26.7401 36.5673 28.2209 36.1154C29.9324 35.5962 32.067 35.1923 34.4516 34.9327C34.567 35.5 34.7305 36.0192 34.9612 36.4712C35.317 37.1731 35.7785 37.7692 36.5478 37.9423C36.9805 38.0481 37.4228 37.7788 37.5285 37.3365C37.6343 36.9038 37.3651 36.4615 36.9228 36.3558H36.9132C36.9324 36.3654 36.6439 36.1923 36.4035 35.7308C36.2689 35.4712 36.1632 35.1538 36.0766 34.7788C36.5959 34.7404 37.1151 34.7115 37.6535 34.6923C37.7593 35.3654 37.9516 35.9615 38.2112 36.4712C38.567 37.1731 39.0286 37.7692 39.7978 37.9423C40.2305 38.0481 40.6728 37.7788 40.7785 37.3365C40.8843 36.9038 40.6151 36.4615 40.1728 36.3558H40.1632C40.1824 36.3654 39.8939 36.1923 39.6536 35.7308C39.5093 35.4519 39.3843 35.0769 39.2978 34.6538C39.5285 34.6538 39.7593 34.6442 39.9997 34.6442C40.2978 34.6442 40.5959 34.6538 40.8843 34.6538C40.9901 35.3365 41.192 35.9519 41.4516 36.4712C41.8074 37.1731 42.2689 37.7692 43.0382 37.9423C43.4709 38.0481 43.9132 37.7788 44.0189 37.3365C44.1247 36.9038 43.8555 36.4615 43.4132 36.3558H43.4036C43.4228 36.3654 43.1343 36.1923 42.8939 35.7308C42.7593 35.4615 42.6343 35.1058 42.5478 34.7019C46.1439 34.8654 49.3555 35.375 51.7593 36.1058C53.2401 36.5577 54.4035 37.1058 55.1439 37.6442C55.8843 38.1827 56.1728 38.6442 56.1728 39.0481C56.1728 39.4519 55.8939 39.9327 55.1439 40.4712C54.4035 41.0096 53.2401 41.5577 51.7593 42.0096C51.6728 42.0385 51.567 42.0577 51.4805 42.0865C51.2689 41.7308 50.9612 41.4231 50.5959 41.1635C49.9228 40.6827 49.0478 40.2788 47.9901 39.9615C45.8843 39.3173 43.0862 38.9615 39.9805 38.9615C36.8747 38.9615 34.0766 39.3269 31.9709 39.9615C30.9228 40.2788 30.0382 40.6827 29.3651 41.1635C28.9997 41.4231 28.692 41.7404 28.4805 42.0865C28.3939 42.0577 28.2882 42.0385 28.2016 42.0096C26.7209 41.5577 25.5574 41.0096 24.817 40.4712C24.0766 39.9327 23.7882 39.4519 23.7882 39.0481C23.8074 38.6538 24.0959 38.1923 24.8362 37.6538ZM49.7689 42.5288C47.0478 43.125 43.6632 43.4904 39.9997 43.4904C36.3362 43.4904 32.9516 43.125 30.2305 42.5288C30.2882 42.4808 30.3555 42.4231 30.4324 42.3654C30.8651 42.0481 31.5959 41.7212 32.5285 41.4423C34.3843 40.875 37.0574 40.5 39.9997 40.5C42.942 40.5 45.6151 40.875 47.4709 41.4423C48.4035 41.7212 49.1247 42.0577 49.567 42.3654C49.6439 42.4231 49.7112 42.4712 49.7689 42.5288ZM40.3555 55.4615C40.2401 55.4615 40.1151 55.4615 39.9997 55.4615C25.1439 55.2212 22.9805 41.0192 22.9805 41.0192C23.3362 41.1731 23.6824 41.3269 24.0382 41.4712V41.4615C24.0478 41.4711 24.067 41.4808 24.0862 41.4904C29.317 43.6346 34.5574 44.3654 39.2689 44.3654C49.3555 44.3654 57.0189 41.0192 57.0189 41.0192C57.0189 41.0192 54.8939 55.4615 40.3555 55.4615Z" fill="#002199"/>
<path d="M24.0864 41.4904C24.0768 41.4808 24.0575 41.4808 24.0479 41.4712C23.6922 41.3269 23.346 41.1731 22.9902 41.0192C22.9902 41.0192 25.1537 55.2212 40.0095 55.4615C40.1248 55.4615 40.2498 55.4615 40.3652 55.4615C54.9037 55.4615 57.0287 41.0192 57.0287 41.0192C57.0287 41.0192 49.3556 44.3654 39.2787 44.3654C34.5479 44.3654 29.3172 43.6346 24.0864 41.4904ZM53.3845 47.8269C50.4325 52.3269 46.0479 54.6058 40.3556 54.6058C40.2402 54.6058 40.1249 54.6058 40.0191 54.6058C34.1825 54.5096 29.6922 52.2019 26.6729 47.7308C25.346 45.7692 24.6056 43.7981 24.221 42.4712C28.8556 44.2981 33.9133 45.2308 39.2691 45.2308C46.8749 45.2308 53.0672 43.3846 55.8268 42.4038C55.4422 43.7404 54.7114 45.7981 53.3845 47.8269Z" fill="#002199"/>
<path d="M40.3555 55.5673C40.2401 55.5673 40.1151 55.5673 39.9997 55.5673C32.2785 55.4423 28.0382 51.5 25.8362 48.2115C23.4516 44.6538 22.8843 41.0769 22.8843 41.0385L22.8555 40.8462L23.0285 40.9231C23.3651 41.0769 23.7209 41.2308 24.0862 41.375L24.1247 41.3942C28.7689 43.2981 33.8651 44.2596 39.2689 44.2596C49.2112 44.2596 56.9035 40.9519 56.9805 40.9231L57.1536 40.8462L57.1247 41.0385C57.1151 41.0769 56.5574 44.7115 54.2305 48.2981C52.067 51.6154 47.9132 55.5673 40.3555 55.5673ZM23.1247 41.1923C23.2785 41.9808 23.9709 45.0481 26.0189 48.0961C28.192 51.3365 32.3843 55.2308 40.0093 55.3558C40.1247 55.3558 40.2497 55.3558 40.3651 55.3558C47.8266 55.3558 51.9228 51.4615 54.0574 48.1923C56.067 45.1058 56.7497 41.9712 56.8939 41.1923C55.6824 41.6827 48.4228 44.4712 39.2785 44.4712C33.8459 44.4712 28.7305 43.5 24.0574 41.5865C24.0382 41.5769 24.0285 41.5769 24.0093 41.5673C23.7016 41.4423 23.4035 41.3173 23.1247 41.1923ZM40.3555 54.7115C40.2401 54.7115 40.1247 54.7115 40.0093 54.7115C34.1343 54.6154 29.6151 52.2885 26.5766 47.7885C25.2401 45.8077 24.4997 43.8269 24.1055 42.5L24.0478 42.2885L24.2497 42.3654C28.8747 44.1923 33.9228 45.1154 39.2593 45.1154C46.7401 45.1154 52.817 43.3462 55.7785 42.2981L55.9709 42.2308L55.9132 42.4231C55.5285 43.7885 54.7978 45.8365 53.4709 47.875C50.4997 52.4135 46.0862 54.7115 40.3555 54.7115ZM24.3747 42.6442C24.7785 43.9423 25.4997 45.8077 26.7497 47.6635C29.7497 52.1058 34.2112 54.4038 40.0093 54.4904C40.1247 54.4904 40.2401 54.4904 40.3459 54.4904C46.0093 54.4904 50.3555 52.2211 53.2882 47.7596C54.5478 45.8461 55.2593 43.9038 55.6535 42.5673C52.6151 43.6346 46.6055 45.3269 39.2593 45.3269C33.9805 45.3269 28.9709 44.4231 24.3747 42.6442Z" fill="#002199"/>
<path d="M39.9999 76.2788C19.9903 76.2788 3.71143 60 3.71143 39.9904C3.71143 19.9808 19.9903 3.71154 39.9999 3.71154C60.0095 3.71154 76.2884 19.9904 76.2884 40C76.2884 60.0096 60.0095 76.2788 39.9999 76.2788ZM39.9999 5.15385C20.7883 5.15385 5.16335 20.7788 5.16335 39.9904C5.16335 59.2019 20.7883 74.8365 39.9999 74.8365C59.2114 74.8365 74.8364 59.2115 74.8364 40C74.8364 20.7885 59.2114 5.15385 39.9999 5.15385Z" fill="#002199"/>
<path d="M40 1.44231C50.2981 1.44231 59.9808 5.45192 67.2596 12.7308C74.5385 20.0096 78.5481 29.6923 78.5481 39.9904C78.5481 50.2885 74.5385 59.9712 67.2596 67.25C59.9808 74.5288 50.2981 78.5481 40 78.5481C29.7019 78.5481 20.0192 74.5385 12.7404 67.2596C5.46154 59.9808 1.45192 50.2885 1.45192 40C1.45192 29.7115 5.46154 20.0192 12.7404 12.7404C20.0192 5.46154 29.7019 1.44231 40 1.44231ZM40 0C17.9135 0 0 17.9038 0 40C0 62.0962 17.9038 80 40 80C62.0865 80 80 62.0962 80 40C80 17.9038 62.0865 0 40 0Z" fill="#002199"/>
<path d="M16.7503 29.7788C16.5676 29.7788 16.4233 29.9231 16.4233 30.1058V33.75C16.4233 34.5096 16.1541 35.2212 15.6926 35.6538C15.2022 36.125 15.0676 36.5962 15.106 37.8558C15.1445 39.3269 15.3272 45.8558 15.3272 45.8558C15.3272 46.1058 15.1253 46.3077 14.8753 46.3077C14.6253 46.3077 14.4233 46.1058 14.4233 45.8654C14.4233 45.8654 14.606 39.3365 14.6445 37.8558C14.6733 36.6058 14.5483 36.125 14.058 35.6538C13.606 35.2212 13.3272 34.5096 13.3272 33.75V30.0481C13.3272 29.8654 13.183 29.7212 13.0003 29.7212C12.8176 29.7212 12.6733 29.8654 12.6733 30.0481V33.75C12.6733 34.6923 13.0195 35.5769 13.606 36.1346C13.8753 36.3846 14.0195 36.5962 13.9906 37.8365C13.9522 39.3173 13.7695 45.8462 13.7695 45.8558C13.7695 46.4712 14.2695 46.9712 14.8849 46.9712C15.5003 46.9712 16.0003 46.4712 16.0003 45.8462C16.0003 45.8462 15.8176 39.3077 15.7791 37.8365C15.7503 36.5865 15.8945 36.3846 16.1637 36.1346C16.7503 35.5769 17.0964 34.6827 17.0964 33.75V30.1058C17.0772 29.9231 16.933 29.7788 16.7503 29.7788Z" fill="#002199"/>
<path d="M14.2688 34.375C14.4515 34.375 14.5957 34.2308 14.5957 34.0481V30.1058C14.5957 29.9231 14.4515 29.7789 14.2688 29.7789C14.0861 29.7789 13.9419 29.9231 13.9419 30.1058V34.0481C13.9419 34.2308 14.0861 34.375 14.2688 34.375Z" fill="#002199"/>
<path d="M15.4617 34.375C15.6443 34.375 15.7886 34.2308 15.7886 34.0481V30.1058C15.7886 29.9231 15.6443 29.7789 15.4617 29.7789C15.279 29.7789 15.1347 29.9231 15.1347 30.1058V34.0481C15.1251 34.2308 15.2693 34.375 15.4617 34.375Z" fill="#002199"/>
<path d="M64.4812 38.3077C64.5869 38.3077 64.6831 38.3654 64.7888 38.4712C65.01 38.7115 65.1446 39.1442 65.1158 39.5L64.7312 45.2596C64.7312 45.8558 65.2215 46.3462 65.8177 46.3462C66.4139 46.3462 66.9042 45.8654 66.9042 45.2596V28.9423C66.9042 28.7981 66.8081 28.6635 66.6638 28.625C66.5196 28.5865 66.3658 28.6442 66.2889 28.7692C66.2023 28.9135 64.1542 32.3462 64.1542 37.9712C64.1446 38.1635 64.2985 38.3077 64.4812 38.3077ZM66.2312 30.4038V45.2596C66.2312 45.4904 66.0389 45.6827 65.8081 45.6827C65.5773 45.6827 65.385 45.4904 65.385 45.2788L65.7696 39.5385C65.8081 39 65.6062 38.3846 65.26 38.0096C65.1254 37.8654 64.9715 37.7596 64.7985 37.6923C64.8562 34.3654 65.6446 31.8269 66.2312 30.4038Z" fill="#002199"/>
<path d="M17.3557 24.0673L18.4326 24.9615L19.9518 23.125L20.971 23.9808L19.4518 25.8077L21.4807 27.4904L20.5383 28.625L15.3364 24.3077L16.2787 23.1731L18.0864 21L19.1441 21.8942L17.3557 24.0673Z" fill="#002199"/>
<path d="M27.0289 20.75L27.8173 21.8173L24.6731 24.1346L24.4808 24.2788L20.4712 18.8462L21.6731 17.9519L24.9039 22.3173L27.0289 20.75Z" fill="#002199"/>
<path d="M31.9905 18.4327L29.9521 19.2212L30.0098 20.7212L28.5675 21.2788L28.3848 14.1058L29.7309 13.5865L34.404 19.0288L32.9425 19.5962L31.9905 18.4327ZM31.154 17.4231L29.8271 15.8269L29.9136 17.9038L31.154 17.4231Z" fill="#002199"/>
<path d="M40.1059 11.6442L38.2982 18.625L36.779 18.7788L33.5098 12.3269L35.1251 12.1538L37.3078 16.625L38.5194 11.7981L40.1059 11.6442Z" fill="#002199"/>
<path d="M45.9522 12.2788C46.433 12.3654 46.8657 12.5385 47.2311 12.7885C47.5964 13.0385 47.8945 13.3461 48.1157 13.7115C48.3464 14.0769 48.4907 14.4808 48.5676 14.9327C48.6445 15.3846 48.6253 15.8558 48.5195 16.3461C48.433 16.8365 48.2599 17.2788 48.0195 17.6635C47.7791 18.0577 47.4811 18.375 47.1349 18.625C46.7888 18.875 46.3945 19.0481 45.9618 19.1442C45.5291 19.2404 45.0676 19.2308 44.5868 19.125C44.1061 19.0385 43.683 18.8654 43.3176 18.6154C42.9522 18.3654 42.6638 18.0577 42.433 17.6923C42.2022 17.3269 42.058 16.9231 41.9811 16.4712C41.9041 16.0192 41.9234 15.5481 42.0195 15.0577C42.1061 14.5673 42.2791 14.125 42.5195 13.7404C42.7599 13.3558 43.058 13.0288 43.4041 12.7788C43.7503 12.5288 44.1445 12.3558 44.5772 12.2596C45.0195 12.1731 45.4811 12.1731 45.9522 12.2788ZM44.8849 17.7212C45.4234 17.8269 45.8753 17.7308 46.2503 17.4327C46.6157 17.1346 46.8753 16.6731 46.9907 16.0385C47.1157 15.4038 47.0676 14.8846 46.8272 14.4711C46.5964 14.0577 46.2118 13.7981 45.6734 13.6923C45.1349 13.5865 44.6734 13.6827 44.2984 13.9712C43.933 14.2692 43.683 14.7308 43.558 15.3654C43.433 16 43.4811 16.5192 43.7214 16.9327C43.9522 17.3558 44.3368 17.6154 44.8849 17.7212Z" fill="#002199"/>
<path d="M52.5192 14.3654L53.8077 15.0962L51.75 18.7212C51.548 19.0673 51.5 19.4038 51.6057 19.7212C51.7115 20.0385 51.9327 20.2981 52.2884 20.5C52.6346 20.6923 52.9711 20.75 53.3077 20.6635C53.6538 20.5769 53.923 20.375 54.1057 20.0577L56.1634 16.4327L57.4519 17.1635L55.375 20.8365C55.173 21.1923 54.923 21.4808 54.6346 21.6923C54.3461 21.9038 54.0288 22.0385 53.6923 22.1154C53.3557 22.1827 53.0096 22.1923 52.6442 22.125C52.2884 22.0577 51.9327 21.9327 51.5961 21.7404C51.2596 21.5577 50.9711 21.3269 50.7404 21.0481C50.5 20.7692 50.3269 20.4615 50.2211 20.1346C50.1057 19.8077 50.0673 19.4615 50.1057 19.1058C50.1346 18.75 50.2596 18.3942 50.4615 18.0481L52.5192 14.3654Z" fill="#002199"/>
<path d="M59.1445 28.0577L58.0099 26.8462L59.058 24.4904L58.2983 23.6827L56.5676 25.3173L55.5483 24.2404L60.4714 19.6058L62.2599 21.5096C62.8464 22.1442 63.1541 22.7404 63.183 23.2981C63.2022 23.8654 62.9522 24.3846 62.433 24.8846C62.0964 25.2019 61.7406 25.4038 61.3753 25.5C61.0099 25.5865 60.6349 25.5577 60.2695 25.4135L59.1445 28.0577ZM61.3464 23.7404C61.5387 23.5577 61.6349 23.3558 61.6445 23.125C61.6541 22.8942 61.5387 22.6538 61.2983 22.3942L60.5291 21.5673L59.2214 22.7981L59.9906 23.6154C60.231 23.875 60.4714 24 60.7022 24.0096C60.9426 24.0192 61.1541 23.9327 61.3464 23.7404Z" fill="#002199"/>
<path d="M17.6155 48.8173L17.9809 49.7692L16.2502 50.4423L16.8752 52.0673L18.6155 51.3942L18.9809 52.3558L14.6155 54.0385L14.2502 53.0769L16.029 52.3942L15.4136 50.7596L13.6252 51.4519L13.2598 50.5L17.6155 48.8173Z" fill="#002199"/>
<path d="M19.3845 54.9423L18.6345 55.4231L19.5672 56.875L18.8076 57.3654L17.8749 55.9135L17.0768 56.4231L18.1249 58.0577L17.3172 58.5769L15.7114 56.0769L19.6441 53.5481L21.2499 56.0481L20.4326 56.5673L19.3845 54.9423Z" fill="#002199"/>
<path d="M21.1058 61.4327L20.0577 60.3462L19.1154 60.7885L18.375 60.0192L22.9038 57.9808L23.5962 58.7019L21.375 63.1346L20.625 62.3558L21.1058 61.4327ZM21.5192 60.6346L22.1827 59.3558L20.8846 59.9712L21.5192 60.6346Z" fill="#002199"/>
<path d="M25.7305 65.2212L25.2016 65.9712L22.9901 64.4135L22.8555 64.3173L25.5574 60.5L26.4035 61.0962L24.2305 64.1635L25.7305 65.2212Z" fill="#002199"/>
<path d="M30.9425 64.7692L29.8078 64.2115L28.1732 67.5288L27.2598 67.0769L28.8944 63.75L27.7502 63.1923L28.1828 62.3173L31.3848 63.8942L30.9425 64.7692Z" fill="#002199"/>
<path d="M32.3464 64.2692L33.3368 64.5288L32.8753 66.3269L34.558 66.7692L35.0195 64.9615L36.0195 65.2212L34.856 69.75L33.856 69.4904L34.3272 67.6442L32.6445 67.2019L32.1637 69.0577L31.1733 68.7981L32.3464 64.2692Z" fill="#002199"/>
<path d="M41.9232 67.7885L43.8367 69.9711L42.5098 70.0481L41.3367 68.6346L40.8944 69.2788L40.9425 70.1538L39.9232 70.2115L39.6348 65.5288L40.654 65.4712L40.7886 67.6635L42.279 65.375L43.6059 65.2981L41.9232 67.7885Z" fill="#002199"/>
<path d="M45.6441 69.5865L44.6152 65.0288L45.6152 64.8077L46.6345 69.3654L45.6441 69.5865Z" fill="#002199"/>
<path d="M50.3367 64.2115L49.154 64.6635L50.4809 68.1154L49.529 68.4808L48.202 65.0288L47.0097 65.4808L46.6636 64.5769L49.9905 63.2981L50.3367 64.2115Z" fill="#002199"/>
<path d="M54.2308 62.6442C54.0481 62.4904 53.8462 62.4038 53.6347 62.4038C53.4231 62.4038 53.2116 62.4615 53.0097 62.5961C52.8462 62.6923 52.7212 62.8173 52.6347 62.9519C52.5385 63.0865 52.4808 63.2404 52.4616 63.4038C52.4328 63.5673 52.452 63.7308 52.5001 63.9135C52.5481 64.0961 52.6251 64.2788 52.7405 64.4519C52.9808 64.8269 53.2597 65.0673 53.577 65.1538C53.8943 65.2404 54.2116 65.1923 54.5193 64.9904C54.7501 64.8461 54.9039 64.6731 55.0097 64.4519C55.1155 64.2404 55.1443 64.0192 55.1058 63.8077L56.1539 63.6346C56.2308 64.0673 56.1731 64.4808 55.9712 64.875C55.7693 65.2596 55.4712 65.5865 55.0578 65.8461C54.7693 66.0288 54.4712 66.1538 54.1731 66.2019C53.8751 66.2596 53.577 66.25 53.2981 66.1731C53.0097 66.1058 52.7501 65.9711 52.5001 65.7788C52.2501 65.5865 52.0289 65.3461 51.8366 65.0385C51.6347 64.7404 51.5097 64.4327 51.4424 64.1154C51.3751 63.7981 51.3751 63.5 51.4328 63.2019C51.4905 62.9135 51.6058 62.6346 51.7789 62.3846C51.952 62.1346 52.1924 61.9135 52.4808 61.7404C52.9039 61.4711 53.327 61.3461 53.7693 61.3654C54.202 61.375 54.577 61.5288 54.8847 61.8269L54.2308 62.6442Z" fill="#002199"/>
<path d="M55.1055 60.0096L55.8266 59.2885L57.1343 60.6058L58.3747 59.375L57.0574 58.0577L57.7882 57.3269L61.0959 60.6346L60.3651 61.3654L59.0189 60.0192L57.7786 61.2404L59.1343 62.5962L58.4132 63.3173L55.1055 60.0096Z" fill="#002199"/>
<path d="M59.9904 55.9135L60.7308 56.4038L61.6827 54.9712L62.4327 55.4712L61.4808 56.9038L62.2788 57.4327L63.3558 55.8077L64.1538 56.3365L62.5192 58.8077L58.625 56.2308L60.2692 53.7596L61.0769 54.2981L59.9904 55.9135Z" fill="#002199"/>
<path d="M62.394 48.8173L66.7497 50.5192L66.3844 51.4615L62.8267 52.1827L65.6728 53.2885L65.3074 54.2308L60.9517 52.5288L61.317 51.5865L64.8747 50.8654L62.0286 49.75L62.394 48.8173Z" fill="#002199"/>
</svg>
