<svg width="150" height="23" viewBox="0 0 150 23" fill="none" xmlns="http://www.w3.org/2000/svg">
<path fill-rule="evenodd" clip-rule="evenodd" d="M148.394 4.8273V9.6546H146.799V14.4819H145.204V19.3092H143.61V22.5201H138.814V19.3092H137.208V14.4819H135.613V9.6546H134.018V4.8273H132.424V0H135.613V4.8273H137.208V9.6546H138.814V14.4819H140.409V17.7037H142.004V14.4819H143.61V9.6546H145.204V4.8273H146.799V0H150V4.8273H148.394ZM127.639 0H130.031V8.04922H127.639V0ZM123.652 6.44376H122.057V9.6546H120.462V12.8765H118.856V22.5201H115.666V12.8765H114.061V9.6546H112.466V6.44376H110.871V3.22191H109.276V0H112.466V3.22191H114.061V6.44376H115.666V9.6546H118.856V6.44376H120.462V3.22191H122.057V0H125.247V3.22191H123.652V6.44376ZM104.578 16.89H102.983V15.2847H101.388V13.6792H93.3918V22.5201H90.202V0H104.578V1.61646H106.173V3.22191H107.778V10.4574H106.173V12.0738H104.578V13.6792H106.173V15.2847H107.778V22.5201H104.578V16.89ZM104.578 4.8273H102.983V3.22191H93.3918V10.4574H102.983V8.85191H104.578V4.8273ZM71.9365 0H87.9072V3.22191H75.1263V8.85191H86.3123V12.0738H75.1263V19.3092H87.9072V22.5201H71.9365V0ZM56.0629 16.0763H57.6577V14.4709H59.2526V12.8655H60.8585V9.64366H62.4533V6.43275H64.0482V0H67.2489V6.43275H65.654V11.2601H64.0482V14.4709H62.4533V16.0763H60.8585V17.6928H59.2526V19.2982H70.4387V22.5201H56.0629V16.0763ZM40.094 16.0763H41.6889V14.4709H43.2837V12.8655H44.8896V9.64366H46.4844V6.43275H48.0793V0H51.28V6.43275H49.6851V11.2601H48.0793V14.4709H46.4844V16.0763H44.8896V17.6928H43.2837V19.2982H54.4698V22.5201H40.094V16.0763ZM35.3945 17.7037H24.2085V22.5201H21.0188V17.7037H22.6136V12.8765H24.2085V8.04922H25.8034V3.22191H27.4092V0H32.2048V3.22191H33.7997V8.04922H35.3945V12.8765H36.9894V17.7037H38.5952V22.5201H35.3945V17.7037ZM33.7997 12.8765H32.2048V8.04922H30.599V4.8273H29.0041V8.04922H27.4092V12.8765H25.8034V14.4819H33.7997V12.8765ZM15.9706 19.3092H14.3758V20.9147H12.7809V22.5201H4.78463V20.9147H3.18973V19.3092H1.5949V17.7037H0V4.8273H1.5949V3.22191H3.18973V1.61646H4.78463V0H14.3758V1.61646H15.9706V3.22191H17.5765V4.8273H19.1714V8.04922H15.9706V6.44376H14.3758V4.8273H12.7809V3.22191H6.39041V4.8273H4.78463V6.44376H3.18973V16.0874H4.78463V17.7037H6.39041V19.3092H12.7809V17.7037H14.3758V16.0874H15.9706V14.4819H11.186V11.2601H19.1714V22.5201H15.9706V19.3092Z" fill="#002199"/>
</svg>
