<?xml version="1.0" encoding="utf-8"?>
<!-- Generator: Adobe Illustrator 24.0.2, SVG Export Plug-In . SVG Version: 6.00 Build 0)  -->
<svg version="1.1" id="Layer_1" xmlns="http://www.w3.org/2000/svg" xmlns:xlink="http://www.w3.org/1999/xlink" x="0px" y="0px"
	 viewBox="0 0 1920 332" style="enable-background:new 0 0 1920 332;" xml:space="preserve">
<style type="text/css">
	.st0{display:none;}
	.st1{display:inline;}
	.st2{fill:#002199;}
</style>
<g id="Original_copy" class="st0">
	<g class="st1">
		<g id="J__-_A__x28_2_x29__1_">
			<g>
				<g>
					<polygon points="1011.5,145.9 972.5,145.9 972.5,82.7 906.6,186.1 945.7,186.1 945.7,249.4 					"/>
				</g>
			</g>
		</g>
	</g>
	<g id="Favorit_Medium" class="st1">
		<g>
			<g>
				<path d="M0,332v-54.4h112.4c25.1,0,34.5-9,34.5-34.5V1h56.7v257.7c0,47.3-26,73.3-73.8,73.3H0z"/>
			</g>
		</g>
		<g>
			<path d="M1722.8,1h68.6L1920,332h-59.6l-31.2-80.9h-147.1L1651,332h-59.1L1722.8,1z M1755.5,60.1l-53.9,140h107.8L1755.5,60.1z"
				/>
		</g>
	</g>
</g>
<circle class="st2" cx="166.1" cy="166.1" r="166.1"/>
<circle class="st2" cx="960" cy="166.1" r="166.1"/>
<circle class="st2" cx="563.1" cy="166.1" r="166.1"/>
<circle class="st2" cx="1356.9" cy="166.1" r="166.1"/>
<circle class="st2" cx="1753.8" cy="166.1" r="166.1"/>
</svg>
