<svg width="150" height="24" viewBox="0 0 150 24" fill="none" xmlns="http://www.w3.org/2000/svg">
<path d="M6.93884 18.5037C5.99653 18.5037 5.62532 18.1325 5.62532 17.2759V3.36962H0V17.1902C0 21.7875 2.5985 23.2724 6.13931 23.2724H8.56647V18.5037H6.93884Z" fill="#002199"/>
<path d="M9.39351 2.9126C9.39351 1.28497 10.6785 0 12.6773 0C14.6476 0 15.9326 1.28497 15.9326 2.9126C15.9326 4.51167 14.6476 5.76809 12.6773 5.76809C10.6785 5.76809 9.39351 4.51167 9.39351 2.9126ZM9.85038 7.25294H15.4471V23.2722H9.85038V7.25294Z" fill="#002199"/>
<path d="M18.5338 11.9075H16.5635V7.25309H18.5338V3.36962H24.1591V7.25309H27.0717V11.9075H24.1591V17.2759C24.1591 18.1325 24.5303 18.5037 25.4726 18.5037H27.1002V23.2724H24.6731C21.1323 23.2724 18.5338 21.7875 18.5338 17.1902V11.9075Z" fill="#002199"/>
<path d="M29.9829 11.9075H28.0126V7.25309H29.9829V3.36962H35.6082V7.25309H38.5208V11.9075H35.6082V17.2759C35.6082 18.1325 35.9795 18.5037 36.9218 18.5037H38.5494V23.2724H36.1222C32.5814 23.2724 29.9829 21.7875 29.9829 17.1902V11.9075Z" fill="#002199"/>
<path d="M40.1181 2.14153H45.7149V23.2722H40.1181V2.14153Z" fill="#002199"/>
<path d="M54.8523 23.472C50.1122 23.472 46.7142 20.3595 46.7142 15.2481C46.7142 10.1654 50.0551 7.05289 54.8523 7.05289C59.5924 7.05289 62.9333 10.1083 62.9333 15.0768C62.9333 15.5051 62.9048 15.962 62.8477 16.3903H52.2538C52.368 18.2464 53.3675 18.9888 54.6239 18.9888C55.709 18.9888 56.3086 18.3892 56.6227 17.7324H62.5907C61.8483 21.0162 58.85 23.472 54.8523 23.472ZM52.2824 13.6776H57.2224C57.2224 12.2499 56.1087 11.4789 54.8237 11.4789C53.4817 11.4789 52.5394 12.2213 52.2824 13.6776Z" fill="#002199"/>
<path d="M64.0761 2.14153H69.6729V9.53725C70.6152 8.16661 72.2999 7.11008 74.6129 7.11008C78.2679 7.11008 80.5809 9.73713 80.5809 13.9347V23.2722H74.9841V14.6771C74.9841 12.8211 73.9561 11.736 72.357 11.736C70.7009 11.736 69.6729 12.8211 69.6729 14.6771V23.2722H64.0761V2.14153Z" fill="#002199"/>
<path d="M88.2898 7.05289C90.5742 7.05289 92.1733 8.05231 93.0014 9.48006V7.25278H98.5981V23.2721H93.0014V21.0448C92.1733 22.4725 90.5456 23.472 88.2898 23.472C84.492 23.472 81.4652 20.3595 81.4652 15.2481C81.4652 10.1368 84.492 7.05289 88.2898 7.05289ZM90.0888 11.9358C88.4897 11.9358 87.1762 13.078 87.1762 15.2481C87.1762 17.3898 88.4897 18.5891 90.0888 18.5891C91.6593 18.5891 93.0014 17.4183 93.0014 15.2481C93.0014 13.1065 91.6593 11.9358 90.0888 11.9358Z" fill="#002199"/>
<path d="M110.85 14.6773C110.85 12.8213 109.822 11.7362 108.223 11.7362C106.567 11.7362 105.539 12.8213 105.539 14.6773V23.2723H99.9418V7.25305H105.539V9.53744C106.481 8.16681 108.166 7.11028 110.421 7.11028C114.134 7.11028 116.447 9.73732 116.447 13.9349V23.2723H110.85V14.6773Z" fill="#002199"/>
<path d="M124.186 7.05297C126.299 7.05297 127.955 7.99528 128.84 9.45158V2.14153H134.466V23.2721H128.84V21.0449C128.012 22.4726 126.413 23.472 124.157 23.472C120.36 23.472 117.333 20.3595 117.333 15.2482C117.333 10.1369 120.36 7.05297 124.186 7.05297ZM125.956 11.9359C124.357 11.9359 123.044 13.0781 123.044 15.2482C123.044 17.3898 124.357 18.5891 125.956 18.5891C127.527 18.5891 128.869 17.4184 128.869 15.2482C128.869 13.1066 127.527 11.9359 125.956 11.9359Z" fill="#002199"/>
<path d="M143.347 23.472C138.892 23.472 135.922 21.0733 135.694 17.8752H141.119C141.262 18.9317 142.147 19.5028 143.318 19.5028C144.26 19.5028 144.803 19.0459 144.803 18.4748C144.803 16.1333 136.294 18.0465 136.294 12.1642C136.294 9.36584 138.607 7.05289 142.947 7.05289C147.316 7.05289 149.6 9.48006 149.971 12.6496H144.917C144.746 11.6502 144.032 11.0506 142.833 11.0506C141.919 11.0506 141.434 11.4218 141.434 12.0214C141.434 14.3058 149.971 12.4783 150 18.5605C150 21.3589 147.487 23.472 143.347 23.472Z" fill="#002199"/>
</svg>
