<svg width="150" height="25" viewBox="0 0 150 25" fill="none" xmlns="http://www.w3.org/2000/svg">
<path fill-rule="evenodd" clip-rule="evenodd" d="M16.835 0H59.1133L54.0942 6.06294L43.3413 18.1534L50.9802 24.5092H37.9891L23.8452 12.3544H36.3498L43.5134 6.06294H22.9432L0.0149711 24.5124L0 14.0696L16.835 0ZM81.1147 17.2452H94.8493V19.6441H78.7324V5.00417H78.7366V5H94.8493V7.39479H81.1147V11.0829H94.8493V13.4777H81.1147V17.2452ZM118.514 17.2452H132.252V19.6441H116.131V5.00417H116.135V5H132.252V7.39479H118.514V11.0829H132.252V13.4777H118.514V17.2452ZM147.63 5V17.0574L137.229 5H136.186H133.958H133.816V19.6441H136.186V7.58671L146.591 19.6441H147.63H149.862H150V5H147.63ZM103.448 11.2457H114.579V13.7364V19.6441H103.244C99.4178 19.6441 96.3179 16.3648 96.3179 12.3221C96.3179 8.27928 99.4178 5 103.244 5H114.579V7.50327H112.214H103.244C102.029 7.50327 100.882 8.00392 100.023 8.91344C99.1633 9.82296 98.6876 11.0329 98.6876 12.3221C98.6876 13.6112 99.1633 14.8212 100.023 15.7307C100.886 16.6402 102.029 17.1409 103.248 17.1409H112.218V13.7364H103.448V11.2457ZM72.5739 14.7627H72.6323C75.169 14.7627 77.2258 12.7059 77.2258 10.1692V9.6227C77.2258 7.08606 75.169 5.02921 72.6323 5.02921H61.3843L61.3301 19.6441H63.9585L63.8876 12.2595V7.53247H66.7079H72.6323C73.7838 7.53247 74.7226 8.4712 74.7226 9.6227V10.1692C74.7226 11.3208 73.7838 12.2595 72.6323 12.2595H66.7079L68.1014 13.6279L74.0967 19.6233H77.4344L72.5739 14.7627Z" fill="#002199"/>
</svg>
